<mxfile host="app.diagrams.net" modified="2023-12-14T09:01:28.173Z" agent="Mozilla/5.0 (Windows NT 10.0; Win64; x64) AppleWebKit/537.36 (KHTML, like Gecko) Chrome/121.0.0.0 Safari/537.36 Edg/121.0.0.0" etag="k9HN5sjYtkN6pqv-b60M" version="21.7.4" type="github">
  <diagram name="第 1 页" id="n0DuYXN_C8thxXYjhhmM">
    <mxGraphModel dx="1379" dy="905" grid="1" gridSize="10" guides="1" tooltips="1" connect="1" arrows="1" fold="1" page="1" pageScale="1" pageWidth="827" pageHeight="1169" math="0" shadow="0">
      <root>
        <mxCell id="0" />
        <mxCell id="1" parent="0" />
        <mxCell id="Z1dKLwnf_OGz-nWWNSpx-51" value="" style="group" vertex="1" connectable="0" parent="1">
          <mxGeometry x="570" y="750" width="250" height="210" as="geometry" />
        </mxCell>
        <mxCell id="Z1dKLwnf_OGz-nWWNSpx-5" value="" style="ellipse;whiteSpace=wrap;html=1;aspect=fixed;direction=south;fillColor=#d5e8d4;strokeColor=#82b366;" vertex="1" parent="Z1dKLwnf_OGz-nWWNSpx-51">
          <mxGeometry y="16.153846153846153" width="28.65160986758083" height="28.65160986758083" as="geometry" />
        </mxCell>
        <mxCell id="Z1dKLwnf_OGz-nWWNSpx-9" value="" style="ellipse;whiteSpace=wrap;html=1;aspect=fixed;direction=south;fillColor=#dae8fc;strokeColor=#6c8ebf;" vertex="1" parent="Z1dKLwnf_OGz-nWWNSpx-51">
          <mxGeometry x="106.90789473684214" width="28.65160986758083" height="28.65160986758083" as="geometry" />
        </mxCell>
        <mxCell id="Z1dKLwnf_OGz-nWWNSpx-1" style="rounded=0;orthogonalLoop=1;jettySize=auto;html=1;exitX=0.5;exitY=0;exitDx=0;exitDy=0;entryX=0.5;entryY=1;entryDx=0;entryDy=0;endArrow=none;endFill=0;" edge="1" parent="Z1dKLwnf_OGz-nWWNSpx-51" source="Z1dKLwnf_OGz-nWWNSpx-5" target="Z1dKLwnf_OGz-nWWNSpx-9">
          <mxGeometry relative="1" as="geometry" />
        </mxCell>
        <mxCell id="Z1dKLwnf_OGz-nWWNSpx-11" value="" style="ellipse;whiteSpace=wrap;html=1;aspect=fixed;direction=south;fillColor=#ffe6cc;strokeColor=#d79b00;" vertex="1" parent="Z1dKLwnf_OGz-nWWNSpx-51">
          <mxGeometry x="217.10526315789474" y="16.153846153846153" width="28.65160986758083" height="28.65160986758083" as="geometry" />
        </mxCell>
        <mxCell id="Z1dKLwnf_OGz-nWWNSpx-6" style="edgeStyle=none;shape=connector;rounded=0;orthogonalLoop=1;jettySize=auto;html=1;exitX=0.5;exitY=0;exitDx=0;exitDy=0;entryX=0.5;entryY=1;entryDx=0;entryDy=0;labelBackgroundColor=default;strokeColor=default;fontFamily=Helvetica;fontSize=11;fontColor=default;endArrow=none;endFill=0;" edge="1" parent="Z1dKLwnf_OGz-nWWNSpx-51" source="Z1dKLwnf_OGz-nWWNSpx-9" target="Z1dKLwnf_OGz-nWWNSpx-11">
          <mxGeometry relative="1" as="geometry" />
        </mxCell>
        <mxCell id="Z1dKLwnf_OGz-nWWNSpx-13" value="&lt;span style=&quot;font-size: 15px;&quot;&gt;···&lt;/span&gt;" style="text;html=1;strokeColor=none;fillColor=none;align=center;verticalAlign=middle;whiteSpace=wrap;rounded=0;fontFamily=Times New Roman;fontStyle=1;rotation=90;" vertex="1" parent="Z1dKLwnf_OGz-nWWNSpx-51">
          <mxGeometry x="8.223684210526317" y="56.53846153846154" width="16.447368421052634" height="24.230769230769234" as="geometry" />
        </mxCell>
        <mxCell id="Z1dKLwnf_OGz-nWWNSpx-14" style="edgeStyle=none;shape=connector;rounded=0;orthogonalLoop=1;jettySize=auto;html=1;exitX=0.5;exitY=0;exitDx=0;exitDy=0;entryX=0.5;entryY=1;entryDx=0;entryDy=0;labelBackgroundColor=default;strokeColor=default;fontFamily=Helvetica;fontSize=11;fontColor=default;endArrow=none;endFill=0;" edge="1" parent="Z1dKLwnf_OGz-nWWNSpx-51" source="Z1dKLwnf_OGz-nWWNSpx-17" target="Z1dKLwnf_OGz-nWWNSpx-9">
          <mxGeometry relative="1" as="geometry" />
        </mxCell>
        <mxCell id="Z1dKLwnf_OGz-nWWNSpx-17" value="" style="ellipse;whiteSpace=wrap;html=1;aspect=fixed;direction=south;fillColor=#d5e8d4;strokeColor=#82b366;" vertex="1" parent="Z1dKLwnf_OGz-nWWNSpx-51">
          <mxGeometry y="88.84615384615385" width="28.65160986758083" height="28.65160986758083" as="geometry" />
        </mxCell>
        <mxCell id="Z1dKLwnf_OGz-nWWNSpx-18" style="edgeStyle=orthogonalEdgeStyle;rounded=0;orthogonalLoop=1;jettySize=auto;html=1;exitX=1;exitY=0.5;exitDx=0;exitDy=0;" edge="1" parent="Z1dKLwnf_OGz-nWWNSpx-51" source="Z1dKLwnf_OGz-nWWNSpx-13" target="Z1dKLwnf_OGz-nWWNSpx-13">
          <mxGeometry relative="1" as="geometry" />
        </mxCell>
        <mxCell id="Z1dKLwnf_OGz-nWWNSpx-19" style="edgeStyle=none;shape=connector;rounded=0;orthogonalLoop=1;jettySize=auto;html=1;exitX=0.5;exitY=0;exitDx=0;exitDy=0;entryX=0.5;entryY=1;entryDx=0;entryDy=0;labelBackgroundColor=default;strokeColor=default;fontFamily=Helvetica;fontSize=11;fontColor=default;endArrow=none;endFill=0;" edge="1" parent="Z1dKLwnf_OGz-nWWNSpx-51" source="Z1dKLwnf_OGz-nWWNSpx-23" target="Z1dKLwnf_OGz-nWWNSpx-9">
          <mxGeometry relative="1" as="geometry" />
        </mxCell>
        <mxCell id="Z1dKLwnf_OGz-nWWNSpx-23" value="" style="ellipse;whiteSpace=wrap;html=1;aspect=fixed;direction=south;fillColor=#d5e8d4;strokeColor=#82b366;" vertex="1" parent="Z1dKLwnf_OGz-nWWNSpx-51">
          <mxGeometry y="161.53846153846155" width="28.65160986758083" height="28.65160986758083" as="geometry" />
        </mxCell>
        <mxCell id="Z1dKLwnf_OGz-nWWNSpx-24" value="&lt;span style=&quot;font-size: 15px;&quot;&gt;···&lt;/span&gt;" style="text;html=1;strokeColor=none;fillColor=none;align=center;verticalAlign=middle;whiteSpace=wrap;rounded=0;fontFamily=Times New Roman;fontStyle=1;rotation=90;" vertex="1" parent="Z1dKLwnf_OGz-nWWNSpx-51">
          <mxGeometry x="8.223684210526317" y="129.23076923076923" width="16.447368421052634" height="24.230769230769234" as="geometry" />
        </mxCell>
        <mxCell id="Z1dKLwnf_OGz-nWWNSpx-25" value="" style="ellipse;whiteSpace=wrap;html=1;aspect=fixed;direction=south;fillColor=#ffe6cc;strokeColor=#d79b00;" vertex="1" parent="Z1dKLwnf_OGz-nWWNSpx-51">
          <mxGeometry x="217.10526315789474" y="88.84615384615385" width="28.65160986758083" height="28.65160986758083" as="geometry" />
        </mxCell>
        <mxCell id="Z1dKLwnf_OGz-nWWNSpx-7" style="edgeStyle=none;shape=connector;rounded=0;orthogonalLoop=1;jettySize=auto;html=1;exitX=0.5;exitY=0;exitDx=0;exitDy=0;entryX=0.5;entryY=1;entryDx=0;entryDy=0;labelBackgroundColor=default;strokeColor=default;fontFamily=Helvetica;fontSize=11;fontColor=default;endArrow=none;endFill=0;" edge="1" parent="Z1dKLwnf_OGz-nWWNSpx-51" source="Z1dKLwnf_OGz-nWWNSpx-9" target="Z1dKLwnf_OGz-nWWNSpx-25">
          <mxGeometry relative="1" as="geometry" />
        </mxCell>
        <mxCell id="Z1dKLwnf_OGz-nWWNSpx-26" value="" style="ellipse;whiteSpace=wrap;html=1;aspect=fixed;direction=south;fillColor=#ffe6cc;strokeColor=#d79b00;" vertex="1" parent="Z1dKLwnf_OGz-nWWNSpx-51">
          <mxGeometry x="217.10526315789474" y="161.53846153846155" width="28.65160986758083" height="28.65160986758083" as="geometry" />
        </mxCell>
        <mxCell id="Z1dKLwnf_OGz-nWWNSpx-8" style="edgeStyle=none;shape=connector;rounded=0;orthogonalLoop=1;jettySize=auto;html=1;exitX=0.5;exitY=0;exitDx=0;exitDy=0;entryX=0.5;entryY=1;entryDx=0;entryDy=0;labelBackgroundColor=default;strokeColor=default;fontFamily=Helvetica;fontSize=11;fontColor=default;endArrow=none;endFill=0;" edge="1" parent="Z1dKLwnf_OGz-nWWNSpx-51" source="Z1dKLwnf_OGz-nWWNSpx-9" target="Z1dKLwnf_OGz-nWWNSpx-26">
          <mxGeometry relative="1" as="geometry" />
        </mxCell>
        <mxCell id="Z1dKLwnf_OGz-nWWNSpx-27" value="&lt;span style=&quot;font-size: 15px;&quot;&gt;···&lt;/span&gt;" style="text;html=1;strokeColor=none;fillColor=none;align=center;verticalAlign=middle;whiteSpace=wrap;rounded=0;fontFamily=Times New Roman;fontStyle=1;rotation=90;" vertex="1" parent="Z1dKLwnf_OGz-nWWNSpx-51">
          <mxGeometry x="225.32894736842107" y="56.53846153846154" width="16.447368421052634" height="24.230769230769234" as="geometry" />
        </mxCell>
        <mxCell id="Z1dKLwnf_OGz-nWWNSpx-28" value="&lt;span style=&quot;font-size: 15px;&quot;&gt;···&lt;/span&gt;" style="text;html=1;strokeColor=none;fillColor=none;align=center;verticalAlign=middle;whiteSpace=wrap;rounded=0;fontFamily=Times New Roman;fontStyle=1;rotation=90;" vertex="1" parent="Z1dKLwnf_OGz-nWWNSpx-51">
          <mxGeometry x="225.32894736842107" y="129.23076923076923" width="16.447368421052634" height="24.230769230769234" as="geometry" />
        </mxCell>
        <mxCell id="Z1dKLwnf_OGz-nWWNSpx-29" style="edgeStyle=none;shape=connector;rounded=0;orthogonalLoop=1;jettySize=auto;html=1;exitX=0.5;exitY=0;exitDx=0;exitDy=0;entryX=0.5;entryY=1;entryDx=0;entryDy=0;labelBackgroundColor=default;strokeColor=default;fontFamily=Helvetica;fontSize=11;fontColor=default;endArrow=none;endFill=0;" edge="1" parent="Z1dKLwnf_OGz-nWWNSpx-51" source="Z1dKLwnf_OGz-nWWNSpx-32" target="Z1dKLwnf_OGz-nWWNSpx-11">
          <mxGeometry relative="1" as="geometry" />
        </mxCell>
        <mxCell id="Z1dKLwnf_OGz-nWWNSpx-30" style="edgeStyle=none;shape=connector;rounded=0;orthogonalLoop=1;jettySize=auto;html=1;exitX=0.5;exitY=0;exitDx=0;exitDy=0;entryX=0.5;entryY=1;entryDx=0;entryDy=0;labelBackgroundColor=default;strokeColor=default;fontFamily=Helvetica;fontSize=11;fontColor=default;endArrow=none;endFill=0;" edge="1" parent="Z1dKLwnf_OGz-nWWNSpx-51" source="Z1dKLwnf_OGz-nWWNSpx-32" target="Z1dKLwnf_OGz-nWWNSpx-25">
          <mxGeometry relative="1" as="geometry" />
        </mxCell>
        <mxCell id="Z1dKLwnf_OGz-nWWNSpx-31" style="edgeStyle=none;shape=connector;rounded=0;orthogonalLoop=1;jettySize=auto;html=1;exitX=0.5;exitY=0;exitDx=0;exitDy=0;entryX=0.5;entryY=1;entryDx=0;entryDy=0;labelBackgroundColor=default;strokeColor=default;fontFamily=Helvetica;fontSize=11;fontColor=default;endArrow=none;endFill=0;" edge="1" parent="Z1dKLwnf_OGz-nWWNSpx-51" source="Z1dKLwnf_OGz-nWWNSpx-32" target="Z1dKLwnf_OGz-nWWNSpx-26">
          <mxGeometry relative="1" as="geometry" />
        </mxCell>
        <mxCell id="Z1dKLwnf_OGz-nWWNSpx-32" value="" style="ellipse;whiteSpace=wrap;html=1;aspect=fixed;direction=south;fillColor=#dae8fc;strokeColor=#6c8ebf;" vertex="1" parent="Z1dKLwnf_OGz-nWWNSpx-51">
          <mxGeometry x="106.90789473684214" y="60.57692307692308" width="28.65160986758083" height="28.65160986758083" as="geometry" />
        </mxCell>
        <mxCell id="Z1dKLwnf_OGz-nWWNSpx-2" style="edgeStyle=none;shape=connector;rounded=0;orthogonalLoop=1;jettySize=auto;html=1;exitX=0.5;exitY=0;exitDx=0;exitDy=0;entryX=0.5;entryY=1;entryDx=0;entryDy=0;labelBackgroundColor=default;strokeColor=default;fontFamily=Helvetica;fontSize=11;fontColor=default;endArrow=none;endFill=0;" edge="1" parent="Z1dKLwnf_OGz-nWWNSpx-51" source="Z1dKLwnf_OGz-nWWNSpx-5" target="Z1dKLwnf_OGz-nWWNSpx-32">
          <mxGeometry relative="1" as="geometry" />
        </mxCell>
        <mxCell id="Z1dKLwnf_OGz-nWWNSpx-15" style="edgeStyle=none;shape=connector;rounded=0;orthogonalLoop=1;jettySize=auto;html=1;exitX=0.5;exitY=0;exitDx=0;exitDy=0;entryX=0.5;entryY=1;entryDx=0;entryDy=0;labelBackgroundColor=default;strokeColor=default;fontFamily=Helvetica;fontSize=11;fontColor=default;endArrow=none;endFill=0;" edge="1" parent="Z1dKLwnf_OGz-nWWNSpx-51" source="Z1dKLwnf_OGz-nWWNSpx-17" target="Z1dKLwnf_OGz-nWWNSpx-32">
          <mxGeometry relative="1" as="geometry" />
        </mxCell>
        <mxCell id="Z1dKLwnf_OGz-nWWNSpx-20" style="edgeStyle=none;shape=connector;rounded=0;orthogonalLoop=1;jettySize=auto;html=1;exitX=0.5;exitY=0;exitDx=0;exitDy=0;entryX=0.5;entryY=1;entryDx=0;entryDy=0;labelBackgroundColor=default;strokeColor=default;fontFamily=Helvetica;fontSize=11;fontColor=default;endArrow=none;endFill=0;" edge="1" parent="Z1dKLwnf_OGz-nWWNSpx-51" source="Z1dKLwnf_OGz-nWWNSpx-23" target="Z1dKLwnf_OGz-nWWNSpx-32">
          <mxGeometry relative="1" as="geometry" />
        </mxCell>
        <mxCell id="Z1dKLwnf_OGz-nWWNSpx-33" value="&lt;span style=&quot;font-size: 15px;&quot;&gt;···&lt;/span&gt;" style="text;html=1;strokeColor=none;fillColor=none;align=center;verticalAlign=middle;whiteSpace=wrap;rounded=0;fontFamily=Times New Roman;fontStyle=1;rotation=90;" vertex="1" parent="Z1dKLwnf_OGz-nWWNSpx-51">
          <mxGeometry x="115.13157894736842" y="92.88461538461539" width="16.447368421052634" height="24.230769230769234" as="geometry" />
        </mxCell>
        <mxCell id="Z1dKLwnf_OGz-nWWNSpx-34" style="edgeStyle=none;shape=connector;rounded=0;orthogonalLoop=1;jettySize=auto;html=1;exitX=0.5;exitY=0;exitDx=0;exitDy=0;entryX=0.5;entryY=1;entryDx=0;entryDy=0;labelBackgroundColor=default;strokeColor=default;fontFamily=Helvetica;fontSize=11;fontColor=default;endArrow=none;endFill=0;" edge="1" parent="Z1dKLwnf_OGz-nWWNSpx-51" source="Z1dKLwnf_OGz-nWWNSpx-36" target="Z1dKLwnf_OGz-nWWNSpx-11">
          <mxGeometry relative="1" as="geometry" />
        </mxCell>
        <mxCell id="Z1dKLwnf_OGz-nWWNSpx-35" style="edgeStyle=none;shape=connector;rounded=0;orthogonalLoop=1;jettySize=auto;html=1;exitX=0.5;exitY=0;exitDx=0;exitDy=0;entryX=0.5;entryY=1;entryDx=0;entryDy=0;labelBackgroundColor=default;strokeColor=default;fontFamily=Helvetica;fontSize=11;fontColor=default;endArrow=none;endFill=0;" edge="1" parent="Z1dKLwnf_OGz-nWWNSpx-51" source="Z1dKLwnf_OGz-nWWNSpx-36" target="Z1dKLwnf_OGz-nWWNSpx-26">
          <mxGeometry relative="1" as="geometry" />
        </mxCell>
        <mxCell id="Z1dKLwnf_OGz-nWWNSpx-36" value="" style="ellipse;whiteSpace=wrap;html=1;aspect=fixed;direction=south;fillColor=#dae8fc;strokeColor=#6c8ebf;" vertex="1" parent="Z1dKLwnf_OGz-nWWNSpx-51">
          <mxGeometry x="106.90789473684214" y="117.11538461538461" width="28.65160986758083" height="28.65160986758083" as="geometry" />
        </mxCell>
        <mxCell id="Z1dKLwnf_OGz-nWWNSpx-3" style="edgeStyle=none;shape=connector;rounded=0;orthogonalLoop=1;jettySize=auto;html=1;exitX=0.5;exitY=0;exitDx=0;exitDy=0;entryX=0.5;entryY=1;entryDx=0;entryDy=0;labelBackgroundColor=default;strokeColor=default;fontFamily=Helvetica;fontSize=11;fontColor=default;endArrow=none;endFill=0;" edge="1" parent="Z1dKLwnf_OGz-nWWNSpx-51" source="Z1dKLwnf_OGz-nWWNSpx-5" target="Z1dKLwnf_OGz-nWWNSpx-36">
          <mxGeometry relative="1" as="geometry" />
        </mxCell>
        <mxCell id="Z1dKLwnf_OGz-nWWNSpx-21" style="edgeStyle=none;shape=connector;rounded=0;orthogonalLoop=1;jettySize=auto;html=1;exitX=0.5;exitY=0;exitDx=0;exitDy=0;entryX=0.5;entryY=1;entryDx=0;entryDy=0;labelBackgroundColor=default;strokeColor=default;fontFamily=Helvetica;fontSize=11;fontColor=default;endArrow=none;endFill=0;" edge="1" parent="Z1dKLwnf_OGz-nWWNSpx-51" source="Z1dKLwnf_OGz-nWWNSpx-23" target="Z1dKLwnf_OGz-nWWNSpx-36">
          <mxGeometry relative="1" as="geometry" />
        </mxCell>
        <mxCell id="Z1dKLwnf_OGz-nWWNSpx-37" style="edgeStyle=none;shape=connector;rounded=0;orthogonalLoop=1;jettySize=auto;html=1;exitX=0.5;exitY=0;exitDx=0;exitDy=0;entryX=0.5;entryY=1;entryDx=0;entryDy=0;labelBackgroundColor=default;strokeColor=default;fontFamily=Helvetica;fontSize=11;fontColor=default;endArrow=none;endFill=0;" edge="1" parent="Z1dKLwnf_OGz-nWWNSpx-51" source="Z1dKLwnf_OGz-nWWNSpx-40" target="Z1dKLwnf_OGz-nWWNSpx-11">
          <mxGeometry relative="1" as="geometry" />
        </mxCell>
        <mxCell id="Z1dKLwnf_OGz-nWWNSpx-38" style="edgeStyle=none;shape=connector;rounded=0;orthogonalLoop=1;jettySize=auto;html=1;exitX=0.5;exitY=0;exitDx=0;exitDy=0;entryX=0.5;entryY=1;entryDx=0;entryDy=0;labelBackgroundColor=default;strokeColor=default;fontFamily=Helvetica;fontSize=11;fontColor=default;endArrow=none;endFill=0;" edge="1" parent="Z1dKLwnf_OGz-nWWNSpx-51" source="Z1dKLwnf_OGz-nWWNSpx-40" target="Z1dKLwnf_OGz-nWWNSpx-25">
          <mxGeometry relative="1" as="geometry" />
        </mxCell>
        <mxCell id="Z1dKLwnf_OGz-nWWNSpx-39" style="edgeStyle=none;shape=connector;rounded=0;orthogonalLoop=1;jettySize=auto;html=1;exitX=0.5;exitY=0;exitDx=0;exitDy=0;entryX=0.5;entryY=1;entryDx=0;entryDy=0;labelBackgroundColor=default;strokeColor=default;fontFamily=Helvetica;fontSize=11;fontColor=default;endArrow=none;endFill=0;" edge="1" parent="Z1dKLwnf_OGz-nWWNSpx-51" source="Z1dKLwnf_OGz-nWWNSpx-40" target="Z1dKLwnf_OGz-nWWNSpx-26">
          <mxGeometry relative="1" as="geometry" />
        </mxCell>
        <mxCell id="Z1dKLwnf_OGz-nWWNSpx-40" value="" style="ellipse;whiteSpace=wrap;html=1;aspect=fixed;direction=south;fillColor=#dae8fc;strokeColor=#6c8ebf;" vertex="1" parent="Z1dKLwnf_OGz-nWWNSpx-51">
          <mxGeometry x="106.90789473684214" y="177.6923076923077" width="28.65160986758083" height="28.65160986758083" as="geometry" />
        </mxCell>
        <mxCell id="Z1dKLwnf_OGz-nWWNSpx-41" value="&lt;span style=&quot;font-size: 15px;&quot;&gt;···&lt;/span&gt;" style="text;html=1;strokeColor=none;fillColor=none;align=center;verticalAlign=middle;whiteSpace=wrap;rounded=0;fontFamily=Times New Roman;fontStyle=1;rotation=90;" vertex="1" parent="Z1dKLwnf_OGz-nWWNSpx-51">
          <mxGeometry x="115.13157894736842" y="153.46153846153848" width="16.447368421052634" height="24.230769230769234" as="geometry" />
        </mxCell>
        <mxCell id="Z1dKLwnf_OGz-nWWNSpx-4" style="edgeStyle=none;shape=connector;rounded=0;orthogonalLoop=1;jettySize=auto;html=1;exitX=0.5;exitY=0;exitDx=0;exitDy=0;entryX=0.5;entryY=1;entryDx=0;entryDy=0;labelBackgroundColor=default;strokeColor=default;fontFamily=Helvetica;fontSize=11;fontColor=default;endArrow=none;endFill=0;" edge="1" parent="Z1dKLwnf_OGz-nWWNSpx-51" source="Z1dKLwnf_OGz-nWWNSpx-5" target="Z1dKLwnf_OGz-nWWNSpx-40">
          <mxGeometry relative="1" as="geometry" />
        </mxCell>
        <mxCell id="Z1dKLwnf_OGz-nWWNSpx-46" style="edgeStyle=none;shape=connector;rounded=0;orthogonalLoop=1;jettySize=auto;html=1;exitX=0.5;exitY=0;exitDx=0;exitDy=0;entryX=0.5;entryY=1;entryDx=0;entryDy=0;labelBackgroundColor=default;strokeColor=default;fontFamily=Helvetica;fontSize=11;fontColor=default;endArrow=none;endFill=0;" edge="1" parent="Z1dKLwnf_OGz-nWWNSpx-51" source="Z1dKLwnf_OGz-nWWNSpx-17" target="Z1dKLwnf_OGz-nWWNSpx-36">
          <mxGeometry relative="1" as="geometry" />
        </mxCell>
        <mxCell id="Z1dKLwnf_OGz-nWWNSpx-16" style="edgeStyle=none;shape=connector;rounded=0;orthogonalLoop=1;jettySize=auto;html=1;exitX=0.5;exitY=0;exitDx=0;exitDy=0;entryX=0.5;entryY=1;entryDx=0;entryDy=0;labelBackgroundColor=default;strokeColor=default;fontFamily=Helvetica;fontSize=11;fontColor=default;endArrow=none;endFill=0;" edge="1" parent="Z1dKLwnf_OGz-nWWNSpx-51" source="Z1dKLwnf_OGz-nWWNSpx-17" target="Z1dKLwnf_OGz-nWWNSpx-40">
          <mxGeometry relative="1" as="geometry" />
        </mxCell>
        <mxCell id="Z1dKLwnf_OGz-nWWNSpx-48" style="edgeStyle=none;shape=connector;rounded=0;orthogonalLoop=1;jettySize=auto;html=1;exitX=0.5;exitY=0;exitDx=0;exitDy=0;entryX=0.5;entryY=1;entryDx=0;entryDy=0;labelBackgroundColor=default;strokeColor=default;fontFamily=Helvetica;fontSize=11;fontColor=default;endArrow=none;endFill=0;" edge="1" parent="Z1dKLwnf_OGz-nWWNSpx-51" source="Z1dKLwnf_OGz-nWWNSpx-36" target="Z1dKLwnf_OGz-nWWNSpx-25">
          <mxGeometry relative="1" as="geometry" />
        </mxCell>
        <mxCell id="Z1dKLwnf_OGz-nWWNSpx-22" style="edgeStyle=none;shape=connector;rounded=0;orthogonalLoop=1;jettySize=auto;html=1;exitX=0.5;exitY=0;exitDx=0;exitDy=0;entryX=0.5;entryY=1;entryDx=0;entryDy=0;labelBackgroundColor=default;strokeColor=default;fontFamily=Helvetica;fontSize=11;fontColor=default;endArrow=none;endFill=0;" edge="1" parent="Z1dKLwnf_OGz-nWWNSpx-51" source="Z1dKLwnf_OGz-nWWNSpx-23" target="Z1dKLwnf_OGz-nWWNSpx-40">
          <mxGeometry relative="1" as="geometry" />
        </mxCell>
        <mxCell id="Z1dKLwnf_OGz-nWWNSpx-52" value="&lt;span style=&quot;font-size: 15px;&quot;&gt;···&lt;/span&gt;" style="text;html=1;strokeColor=none;fillColor=none;align=center;verticalAlign=middle;whiteSpace=wrap;rounded=0;fontFamily=Times New Roman;fontStyle=1;rotation=90;" vertex="1" parent="Z1dKLwnf_OGz-nWWNSpx-51">
          <mxGeometry x="114.13157894736842" y="32.30602122015914" width="16.447368421052634" height="24.230769230769234" as="geometry" />
        </mxCell>
        <mxCell id="Z1dKLwnf_OGz-nWWNSpx-53" value="27 * N" style="rounded=0;whiteSpace=wrap;html=1;" vertex="1" parent="1">
          <mxGeometry x="275" y="160" width="320" height="80" as="geometry" />
        </mxCell>
        <mxCell id="Z1dKLwnf_OGz-nWWNSpx-55" value="" style="rounded=1;whiteSpace=wrap;html=1;" vertex="1" parent="1">
          <mxGeometry x="20" y="270" width="830" height="350" as="geometry" />
        </mxCell>
        <mxCell id="Z1dKLwnf_OGz-nWWNSpx-54" value="卷积层 #1" style="rounded=0;whiteSpace=wrap;html=1;" vertex="1" parent="1">
          <mxGeometry x="80" y="290" width="710" height="40" as="geometry" />
        </mxCell>
        <mxCell id="Z1dKLwnf_OGz-nWWNSpx-57" value="卷积层 #2" style="rounded=0;whiteSpace=wrap;html=1;" vertex="1" parent="1">
          <mxGeometry x="245" y="430" width="380" height="40" as="geometry" />
        </mxCell>
        <mxCell id="Z1dKLwnf_OGz-nWWNSpx-58" value="池化层" style="rounded=0;whiteSpace=wrap;html=1;" vertex="1" parent="1">
          <mxGeometry x="375" y="490" width="120" height="60" as="geometry" />
        </mxCell>
        <mxCell id="Z1dKLwnf_OGz-nWWNSpx-59" value="批归一化" style="shape=parallelogram;perimeter=parallelogramPerimeter;whiteSpace=wrap;html=1;fixedSize=1;" vertex="1" parent="1">
          <mxGeometry x="365" y="350" width="140" height="60" as="geometry" />
        </mxCell>
      </root>
    </mxGraphModel>
  </diagram>
</mxfile>
